<svg width="942" height="123" viewBox="0 0 942 123" fill="none" xmlns="http://www.w3.org/2000/svg">
<path d="M16.968 122.96C7.496 122.96 0.84 118.992 1.352 115.472L2.056 110.992C2.312 109.136 3.784 108.688 4.936 109.072C7.496 109.968 11.208 111.696 15.752 111.696C21.448 111.696 27.72 108.624 29.256 96.208L32.776 68.048L14.792 74.256C13.576 74.704 12.808 73.488 13 72.208L14.088 64.912C14.28 63.632 15.048 62.992 16.136 62.608L34.184 56.4L37.96 26.128C40.2 8.144 51.4 3.088 61.704 3.088C75.784 3.088 82.76 12.624 82.76 24.656C82.76 36.816 75.528 53.136 48.712 62.48L45.896 63.44L44.488 74.32H70.216C71.496 74.32 72.2 75.024 72.008 76.368L71.048 82.896C70.856 84.176 70.152 84.688 69 84.688H43.208L41.48 98.256C38.984 118.416 27.016 122.96 16.968 122.96ZM47.368 51.792C66.12 44.432 71.496 34.448 71.496 25.424C71.496 18.64 68.552 14.416 61.896 14.416C56.328 14.416 51.656 17.488 50.312 28.24L47.368 51.792ZM92.454 99.536C91.174 100.048 90.342 99.152 90.47 98L91.558 90.128C91.686 89.168 92.006 88.272 92.71 87.632L138.662 45.2H98.726C97.446 45.2 96.742 44.56 96.934 43.152L97.894 36.432C98.086 35.152 98.79 34.64 99.942 34.64H152.806C153.958 34.64 154.854 35.728 154.662 36.944L153.702 44.176C153.574 45.072 153.382 45.84 152.486 46.672L114.022 82.128C114.918 81.936 116.006 81.808 117.094 81.808C126.182 81.808 134.182 89.232 144.358 89.232C148.198 89.232 148.71 88.144 150.054 88.144C151.142 88.144 151.782 88.592 151.462 90L150.758 93.328C149.606 98.704 145.83 100.24 141.542 100.24C131.43 100.24 120.678 91.6 109.926 91.6C100.518 91.6 95.846 98.256 92.454 99.536ZM174.468 122.96C164.996 122.96 158.34 118.992 158.852 115.472L159.556 110.992C159.812 109.136 161.284 108.688 162.436 109.072C164.996 109.968 168.708 111.696 173.252 111.696C178.948 111.696 185.22 108.624 186.756 96.208L190.276 68.048L172.292 74.256C171.076 74.704 170.308 73.488 170.5 72.208L171.588 64.912C171.78 63.632 172.548 62.992 173.636 62.608L191.684 56.4L195.46 26.128C197.7 8.144 208.9 3.088 219.204 3.088C233.284 3.088 240.26 12.624 240.26 24.656C240.26 36.816 233.028 53.136 206.212 62.48L203.396 63.44L201.988 74.32H227.716C228.996 74.32 229.7 75.024 229.508 76.368L228.548 82.896C228.356 84.176 227.652 84.688 226.5 84.688H200.708L198.98 98.256C196.484 118.416 184.516 122.96 174.468 122.96ZM204.868 51.792C223.62 44.432 228.996 34.448 228.996 25.424C228.996 18.64 226.052 14.416 219.396 14.416C213.828 14.416 209.156 17.488 207.812 28.24L204.868 51.792ZM312.802 50.384C314.082 50.384 314.786 51.024 314.594 52.432L313.634 59.216C313.442 60.496 312.738 61.008 311.586 61.008H251.49C250.21 61.008 249.506 60.368 249.698 58.96L250.658 52.176C250.85 50.896 251.554 50.384 252.706 50.384H312.802ZM345.472 99.664C334.336 99.664 326.72 91.792 326.72 76.176C326.72 52.944 343.552 33.232 369.664 33.232C378.048 33.232 387.136 35.28 391.616 39.888L385.792 81.36C385.088 86.608 385.216 89.424 390.336 88.4C391.936 88.08 392.768 89.104 392.384 91.472C391.68 95.504 388.16 98.896 383.232 98.896C376.832 98.896 372.224 93.648 373.44 83.472L374.656 74H373.44C366.208 90.32 357.44 99.664 345.472 99.664ZM350.272 88.208C365.76 88.208 376 60.112 378.496 47.568C376.384 45.328 371.584 44.688 367.808 44.688C350.656 44.688 339.136 58.064 339.136 73.808C339.136 84.624 344.512 88.208 350.272 88.208ZM448.862 99.664C437.022 99.664 424.03 93.52 427.614 73.616L431.326 53.072C427.486 55.824 422.046 57.424 416.03 57.424C412.318 57.424 408.798 56.784 406.366 55.696C405.342 55.248 404.958 54.48 405.15 53.328L406.238 46.352C406.494 44.688 407.454 44.368 408.67 44.688C410.718 45.2 413.278 45.584 416.158 45.584C425.374 45.584 432.094 41.872 434.334 36.24C434.782 35.088 435.422 34.64 436.51 34.64H444.894C446.238 34.64 446.814 35.408 446.558 36.752L440.158 73.872C438.174 85.2 444.702 88.336 451.358 88.336C457.566 88.336 461.982 85.52 465.374 83.088C466.462 82.32 467.486 82.256 468.382 83.92L470.942 88.72C471.518 89.808 471.134 90.704 470.622 91.216C467.102 94.736 459.55 99.664 448.862 99.664ZM442.974 18.128C438.174 18.128 434.398 14.288 434.398 9.488C434.398 4.688 438.174 0.911995 442.974 0.911995C447.774 0.911995 451.614 4.688 451.614 9.488C451.614 14.288 447.774 18.128 442.974 18.128ZM549.052 50.384C550.332 50.384 551.036 51.024 550.844 52.432L549.884 59.216C549.692 60.496 548.988 61.008 547.836 61.008H487.74C486.46 61.008 485.756 60.368 485.948 58.96L486.908 52.176C487.1 50.896 487.804 50.384 488.956 50.384H549.052ZM602.074 99.664C590.49 99.664 577.37 93.648 580.186 73.872L584.154 45.584H564.57C563.29 45.584 562.586 44.816 562.778 43.536L563.802 36.432C563.994 35.152 564.698 34.64 565.914 34.64H585.754L588.634 14.032C588.826 12.752 589.53 12.24 590.682 12.24H599.514C600.794 12.24 601.498 12.944 601.306 14.288L598.426 34.64H627.162C628.506 34.64 629.21 35.344 629.018 36.688L627.994 43.792C627.802 45.072 627.098 45.584 625.946 45.584H596.89L592.986 72.912C591.258 85.136 597.53 88.336 603.674 88.336C611.418 88.336 616.09 83.28 618.586 77.264C619.098 76.112 619.93 75.92 621.146 76.432L626.842 78.8C628.186 79.376 628.058 80.464 627.802 81.424C625.05 91.6 615.258 99.664 602.074 99.664ZM670.392 99.664C653.496 99.664 641.912 87.76 641.912 70.416C641.912 49.552 658.488 33.232 678.2 33.232C695.224 33.232 707.064 45.392 706.808 62.992C706.488 83.728 689.976 99.664 670.392 99.664ZM671.416 88.016C683.96 88.016 694.456 77.84 694.456 63.376C694.456 51.6 687.352 44.88 677.24 44.88C664.696 44.88 654.2 55.056 654.2 69.52C654.2 81.296 661.304 88.016 671.416 88.016ZM749.142 99.664C732.246 99.664 720.662 87.76 720.662 70.416C720.662 49.552 737.238 33.232 756.95 33.232C773.974 33.232 785.814 45.392 785.558 62.992C785.238 83.728 768.726 99.664 749.142 99.664ZM750.166 88.016C762.71 88.016 773.206 77.84 773.206 63.376C773.206 51.6 766.102 44.88 755.99 44.88C743.446 44.88 732.95 55.056 732.95 69.52C732.95 81.296 740.054 88.016 750.166 88.016ZM835.06 99.664C822.644 99.664 809.46 93.584 812.724 71.696L813.108 69.072L798.388 74.192C797.172 74.64 796.404 73.424 796.596 72.144L797.684 64.72C797.876 63.44 798.708 62.8 799.796 62.416L814.836 57.232L819.444 26.128C822.068 8.20799 833.076 3.088 843.572 3.088C858.036 3.088 865.012 12.624 865.012 24.4C865.012 36.944 856.82 53.648 830.388 62.864L826.292 64.272L825.012 72.656C823.092 85.2 830.452 88.336 837.556 88.336C844.788 88.336 850.42 85.328 853.876 83.024C855.028 82.256 855.988 82.32 856.692 83.6L859.38 88.72C859.892 89.68 859.572 90.64 859.06 91.152C855.732 94.48 846.772 99.664 835.06 99.664ZM828.084 52.56C846.772 45.392 852.852 34.64 852.852 25.232C852.852 18.64 850.1 14.416 843.572 14.416C837.94 14.416 833.396 17.488 831.732 28.496L828.084 52.56ZM906.898 99.664C887.058 99.664 877.074 88.336 879.442 76.496C879.698 75.344 880.53 74.896 881.618 74.896H890.002C891.282 74.896 891.794 75.536 891.73 76.88C891.346 83.408 898.194 88.08 908.05 88.08C919.506 88.08 928.978 81.872 928.978 71.248C928.978 60.624 919.762 55.504 918.418 43.024L901.266 62.352C899.474 64.336 896.786 63.76 894.034 61.2C891.282 58.64 890.962 56.016 892.69 54.16L911.314 34.256C912.082 33.424 912.658 33.168 913.618 33.168H927.954C927.954 51.664 941.458 57.808 941.458 73.168C941.458 89.872 925.394 99.664 906.898 99.664Z" fill="#5BA0F0"/>
</svg>
