<svg width="826" height="114" viewBox="0 0 826 114" fill="none" xmlns="http://www.w3.org/2000/svg">
<path d="M43.584 90.744C43.584 104.44 32.704 113.912 21.056 113.912C10.176 113.912 1.6 104.824 1.6 84.6C1.6 76.024 3.008 67.064 5.44 58.232L0.704 56.184L2.112 50.168H8C17.344 23.544 35.648 0.759995 52.672 0.759995C66.624 0.759995 69.184 16.248 52.416 33.656L48.192 31.48C58.048 19.832 56.768 11.256 48.96 11.256C37.696 11.256 24.896 28.792 17.472 50.168H55.36L53.824 58.36L21.696 57.848C37.056 69.496 43.584 80.888 43.584 90.744ZM24.64 105.72C31.168 105.72 36.544 100.728 36.544 92.664C36.544 83.064 29.888 72.184 14.272 61.048C12.352 68.728 11.328 76.536 11.328 83.96C11.328 100.216 17.472 105.72 24.64 105.72ZM116.903 91H66.343L68.007 82.552L115.623 36.856L77.223 37.112L79.655 28.28H128.807L127.143 36.728L79.527 82.424L119.335 82.168L116.903 91ZM184.334 90.744C184.334 104.44 173.454 113.912 161.806 113.912C150.926 113.912 142.35 104.824 142.35 84.6C142.35 76.024 143.758 67.064 146.19 58.232L141.454 56.184L142.862 50.168H148.75C158.094 23.544 176.398 0.759995 193.422 0.759995C207.374 0.759995 209.934 16.248 193.166 33.656L188.942 31.48C198.798 19.832 197.518 11.256 189.71 11.256C178.446 11.256 165.646 28.792 158.222 50.168H196.11L194.574 58.36L162.446 57.848C177.806 69.496 184.334 80.888 184.334 90.744ZM165.39 105.72C171.918 105.72 177.294 100.728 177.294 92.664C177.294 83.064 170.638 72.184 155.022 61.048C153.102 68.728 152.078 76.536 152.078 83.96C152.078 100.216 158.222 105.72 165.39 105.72ZM258.549 49.144L257.013 57.848H218.869L220.533 49.144H258.549ZM298.204 82.936C303.58 82.936 311.772 77.688 318.044 71.416C319.324 64.888 322.78 47.352 324.7 37.624C320.092 36.216 315.612 35.576 312.668 35.576C300.124 35.576 290.012 52.856 290.012 70.392C290.012 79.224 293.596 82.936 298.204 82.936ZM339.164 86.264C320.476 97.272 315.484 92.024 317.02 78.84C309.468 86.264 300.38 92.28 293.212 92.28C285.532 92.28 279.9 85.88 279.9 72.696C279.9 49.272 295.388 27 318.044 27C323.42 27 329.436 27.896 335.964 29.688L327.132 74.744C325.34 83.576 326.108 85.624 338.14 81.144L339.164 86.264ZM391.235 17.528L380.867 18.04L384.835 1.016L396.355 0.375999L391.235 17.528ZM404.419 85.368C372.803 98.296 362.051 92.408 366.915 74.104L376.643 37.112L353.987 40.184L353.347 34.808L379.715 28.28L388.547 28.408L377.027 72.44C374.083 83.96 377.411 86.392 403.267 79.864L404.419 85.368ZM469.674 49.144L468.138 57.848H429.994L431.658 49.144H469.674ZM543.377 84.344C510.737 100.856 499.857 90.36 504.593 69.88L512.017 36.344H500.113L502.161 28.536H510.225L520.081 10.872L527.761 10.232L523.665 28.536H547.857L546.321 36.344H521.873L514.449 69.368C511.249 83.32 515.601 88.184 542.353 79.096L543.377 84.344ZM561.912 66.936C561.912 44.92 576.504 26.744 595.576 26.744C609.4 26.744 618.616 35.832 618.616 52.344C618.616 74.616 603.768 92.408 584.824 92.408C570.872 92.408 561.912 83.448 561.912 66.936ZM608.376 53.752C608.376 41.976 603.128 35.064 593.912 35.064C580.856 35.064 572.024 49.4 572.024 65.528C572.024 77.304 577.272 84.088 586.488 84.088C599.416 84.088 608.376 70.008 608.376 53.752ZM632.287 66.936C632.287 44.92 646.879 26.744 665.951 26.744C679.775 26.744 688.991 35.832 688.991 52.344C688.991 74.616 674.143 92.408 655.199 92.408C641.247 92.408 632.287 83.448 632.287 66.936ZM678.751 53.752C678.751 41.976 673.503 35.064 664.287 35.064C651.231 35.064 642.399 49.4 642.399 65.528C642.399 77.304 647.647 84.088 656.863 84.088C669.791 84.088 678.751 70.008 678.751 53.752ZM755.014 82.68C731.206 96.888 715.462 95.096 712.39 76.024C709.83 77.56 707.014 79.352 706.246 79.864L703.558 75.256C704.71 74.488 708.934 71.8 711.75 69.88C711.75 69.368 711.75 68.728 711.75 68.216C711.75 33.4 733.894 0.631996 751.942 0.631996C759.494 0.631996 763.974 5.49599 763.974 13.944C763.974 29.176 751.686 49.016 721.99 70.264C723.398 86.392 733.638 86.904 753.094 77.56L755.014 82.68ZM748.486 10.488C737.734 10.488 722.886 35.32 721.862 63.352C745.67 44.664 754.502 28.664 754.502 18.168C754.502 13.048 752.07 10.488 748.486 10.488ZM825.389 74.36C825.389 84.344 816.045 93.688 781.357 91.896L781.613 82.68C809.261 84.984 815.533 81.016 815.533 75C815.533 68.088 805.677 59.768 800.045 50.168C794.541 54.904 787.245 60.152 778.029 65.656L775.341 61.048C786.093 53.624 792.749 48.376 797.101 43.64C796.589 41.848 796.333 40.056 796.333 38.136C796.333 30.456 803.245 23.032 809.645 23.032C816.813 23.032 818.477 30.712 807.981 42.616C811.949 52.6 825.389 63.736 825.389 74.36Z" fill="#5BA0F0"/>
</svg>
